<svg
                class="desktop-logo"
                width="94"
                height="28"
                viewBox="0 0 94 28"
                fill="none"
                xmlns="http://www.w3.org/2000/svg"
              >
                <g clip-path="url(#clip0_124_2935)">
                  <path
                    d="M34.978 25.3838L35.0349 25.4877H35.1534H35.2969H35.4178L35.474 25.3806L41.9286 13.0777L42.0822 12.7848H41.7515H38.5383H38.4076L38.3551 12.9044L35.3174 19.8236L32.0062 12.8985L31.9518 12.7848H31.8258H28.4119H28.0743L28.2365 13.0809L34.978 25.3838Z"
                    fill="#2D3239"
                    stroke="#2D3239"
                    stroke-width="0.4"
                  ></path>
                  <path
                    d="M45.7296 13.1524L45.7295 13.1525C44.6852 13.7229 43.8656 14.5057 43.2729 15.5004C42.6793 16.4965 42.384 17.6151 42.384 18.8501C42.384 20.1782 42.683 21.3453 43.2881 22.344C43.89 23.3397 44.7116 24.1041 45.7486 24.6362C46.7842 25.1675 47.9493 25.4307 49.2392 25.4307C50.6063 25.4307 51.8039 25.1431 52.824 24.5603C53.839 23.9804 54.6345 23.1924 55.2079 22.1973L55.2079 22.1972C55.7813 21.2015 56.0663 20.0838 56.0663 18.8501C56.0663 17.6168 55.7855 16.5005 55.2224 15.5043L55.2223 15.5041C54.6583 14.5088 53.867 13.7249 52.8511 13.1537L52.851 13.1536C51.8313 12.581 50.6254 12.2985 49.2965 12.2985C47.9665 12.2985 46.7764 12.5814 45.7296 13.1524ZM46.1738 20.8015L46.1737 20.8013C45.8782 20.2556 45.7234 19.6461 45.7111 18.9676V18.879C45.7111 18.1851 45.8658 17.5505 46.1751 16.97L46.1752 16.9699C46.4849 16.3882 46.9016 15.9277 47.4273 15.5845C47.9471 15.2454 48.5396 15.0737 49.211 15.0737C50.2469 15.0737 51.0858 15.4385 51.7447 16.1669C52.4066 16.8994 52.74 17.7997 52.74 18.8798C52.74 19.96 52.4066 20.8549 51.7456 21.5774L51.7455 21.5775C51.0878 22.2971 50.2488 22.657 49.211 22.657C48.5582 22.657 47.969 22.4901 47.4377 22.1578C46.9036 21.8237 46.4825 21.373 46.1738 20.8015Z"
                    fill="#2D3239"
                    stroke="#2D3239"
                    stroke-width="0.4"
                  ></path>
                  <path
                    d="M60.9052 13.1525L60.9051 13.1525C59.8608 13.723 59.0412 14.5058 58.4485 15.5004C57.8549 16.4966 57.5596 17.6151 57.5596 18.8502C57.5596 20.1783 57.8586 21.3454 58.4637 22.3441C59.0656 23.3397 59.8872 24.1041 60.9242 24.6362C61.9598 25.1676 63.1249 25.4307 64.4148 25.4307C65.7819 25.4307 66.9795 25.1432 67.9996 24.5604C69.0146 23.9805 69.8101 23.1925 70.3835 22.1974L70.3835 22.1973C70.9569 21.2015 71.2419 20.0839 71.2419 18.8502C71.2419 17.6169 70.9611 16.5006 70.398 15.5044L70.3979 15.5042C69.8339 14.5089 69.0425 13.725 68.0267 13.1537L68.0266 13.1537C67.0069 12.5811 65.801 12.2985 64.4721 12.2985C63.1421 12.2985 61.952 12.5815 60.9052 13.1525ZM61.3494 20.8016L61.3493 20.8014C61.041 20.232 60.8859 19.5933 60.8859 18.8791C60.8859 18.1851 61.0406 17.5505 61.3499 16.9701L61.35 16.97C61.6597 16.3883 62.0763 15.9278 62.6021 15.5846C63.1219 15.2455 63.7144 15.0738 64.3858 15.0738C65.4217 15.0738 66.2606 15.4385 66.9195 16.1669C67.5814 16.8995 67.9148 17.7997 67.9148 18.8799C67.9148 19.9601 67.5814 20.855 66.9204 21.5775L66.9203 21.5776C66.2626 22.2972 65.4236 22.6571 64.3858 22.6571C63.7338 22.6571 63.1446 22.4901 62.6133 22.1578C62.0792 21.8238 61.6581 21.3731 61.3494 20.8016Z"
                    fill="#2D3239"
                    stroke="#2D3239"
                    stroke-width="0.4"
                  ></path>
                  <path
                    d="M73.9679 2.51221H73.7679V2.71221V24.9445V25.1445H73.9679H76.8652H77.0652V24.9445V2.71221V2.51221H76.8652H73.9679Z"
                    fill="#2D3239"
                    stroke="#2D3239"
                    stroke-width="0.4"
                  ></path>
                  <path
                    d="M81.9715 7.54801H81.7715V7.74801V12.8129H79.8488H79.6488V13.0129V15.2732V15.4732H79.8488H81.7715V24.9445V25.1445H81.9715H84.8978H85.0978V24.9445V15.4732H88.111H88.311V15.2732V13.0129V12.8129H88.111H85.0978V7.74801V7.54801H84.8978H81.9715Z"
                    fill="#2D3239"
                    stroke="#2D3239"
                    stroke-width="0.4"
                  ></path>
                  <path
                    d="M91.7583 23.4848C92.0034 22.4493 91.3603 21.4125 90.3231 21.1684C89.286 20.9242 88.2459 21.5648 88.0009 22.6003C87.7558 23.6359 88.3989 24.6727 89.4361 24.9168C90.4732 25.161 91.5132 24.5204 91.7583 23.4848Z"
                    fill="#FCC72C"
                    stroke="#FCC72C"
                    stroke-width="0.4"
                  ></path>
                  <path
                    d="M17.9512 1.70061L18.197 1.25556H17.6886H15.204H15.027L14.9414 1.41048L13.9438 3.21603H0.861877H0.34158L0.60224 3.66632L11.3524 22.2373L11.6098 22.6821L11.8705 22.2392L19.5759 9.15014L19.8421 8.69795H19.3174H14.0861L17.9512 1.70061ZM9.89539 11.4682H14.9911L11.6295 17.1788L5.15141 5.98629H12.4148L9.63278 11.0232L9.38697 11.4682H9.89539Z"
                    fill="#FCC72C"
                    stroke="#FCC72C"
                    stroke-width="0.6"
                  ></path>
                  <path
                    d="M12.6249 24.1239L12.5379 24.2742L12.6249 24.4245L13.8813 26.5947L14.141 27.0432L14.4006 26.5947L27.6732 3.66632L27.9339 3.21602H27.4136H18.5001H18.3228L18.2373 3.37138L17.0429 5.54164L16.7982 5.98628H17.3058H23.124L12.6249 24.1239Z"
                    fill="#2D3239"
                    stroke="#2D3239"
                    stroke-width="0.6"
                  ></path>
                </g>
                <defs>
                  <clippath id="clip0_124_2935">
                    <rect width="94" height="28" fill="white"></rect>
                  </clippath>
                </defs>
              </svg>